<svg xmlns="http://www.w3.org/2000/svg" width="856" height="460" viewBox="0 0 856 460" font-family="Helvetica,Arial,sans-serif"><rect x="0" y="0" width="856" height="460" fill="#FFFFFF"/>
<text x="428.00" y="30.00" font-size="17.00" text-anchor="middle" fill="#222222" font-weight="bold">PHI removed and notes fully cleaned</text>
<line x1="72.00" y1="356.00" x2="580.00" y2="356.00" stroke="#E8E8E8" stroke-width="1.00"/>
<text x="64.00" y="360.00" font-size="11.00" text-anchor="end" fill="#555555">0.0</text>
<line x1="72.00" y1="295.60" x2="580.00" y2="295.60" stroke="#E8E8E8" stroke-width="1.00"/>
<text x="64.00" y="299.60" font-size="11.00" text-anchor="end" fill="#555555">0.2</text>
<line x1="72.00" y1="235.20" x2="580.00" y2="235.20" stroke="#E8E8E8" stroke-width="1.00"/>
<text x="64.00" y="239.20" font-size="11.00" text-anchor="end" fill="#555555">0.4</text>
<line x1="72.00" y1="174.80" x2="580.00" y2="174.80" stroke="#E8E8E8" stroke-width="1.00"/>
<text x="64.00" y="178.80" font-size="11.00" text-anchor="end" fill="#555555">0.6</text>
<line x1="72.00" y1="114.40" x2="580.00" y2="114.40" stroke="#E8E8E8" stroke-width="1.00"/>
<text x="64.00" y="118.40" font-size="11.00" text-anchor="end" fill="#555555">0.8</text>
<line x1="72.00" y1="54.00" x2="580.00" y2="54.00" stroke="#E8E8E8" stroke-width="1.00"/>
<text x="64.00" y="58.00" font-size="11.00" text-anchor="end" fill="#555555">1.0</text>
<text x="20.00" y="205.00" font-size="12.00" text-anchor="middle" fill="#555555" transform="rotate(-90.00 20.00 205.00)">proportion</text>
<line x1="72.00" y1="54.00" x2="72.00" y2="356.00" stroke="#333333" stroke-width="1.00"/>
<line x1="72.00" y1="356.00" x2="580.00" y2="356.00" stroke="#333333" stroke-width="1.00"/>
<rect x="122.80" y="120.71" width="182.88" height="235.29" rx="2" fill="#4C78A8"/>
<text x="214.24" y="116.71" font-size="9.00" text-anchor="middle" fill="#333333">0.779</text>
<rect x="326.00" y="356.00" width="182.88" height="0.00" rx="2" fill="#F58518"/>
<text x="417.44" y="352.00" font-size="9.00" text-anchor="middle" fill="#333333">0.000</text>
<text x="326.00" y="372.00" font-size="11.00" text-anchor="end" fill="#222222" transform="rotate(-30.00 326.00 372.00)">gemma-3-1b-it</text>
<rect x="600.00" y="62.00" width="13.00" height="13.00" rx="2" fill="#4C78A8"/>
<text x="619.00" y="73.00" font-size="12.00" text-anchor="start" fill="#222222">PHI removed (char recall)</text>
<rect x="600.00" y="84.00" width="13.00" height="13.00" rx="2" fill="#F58518"/>
<text x="619.00" y="95.00" font-size="12.00" text-anchor="start" fill="#222222">Notes fully cleaned</text>
</svg>